<svg width="28" height="28" viewBox="0 0 28 28" fill="none" xmlns="http://www.w3.org/2000/svg">
<g filter="url(#filter0_d_0_610)">
<circle cx="13.2005" cy="13.2611" r="10.5838" fill="white"/>
</g>
<path fill-rule="evenodd" clip-rule="evenodd" d="M17.2026 16.3157C16.9443 16.5126 16.5754 16.4629 16.3785 16.2046L13.4446 12.3565C13.3715 12.3082 13.2649 12.3082 13.1918 12.3565L10.2579 16.2046C10.061 16.4629 9.69205 16.5126 9.43382 16.3157C9.17558 16.1188 9.12585 15.7499 9.32274 15.4916L12.2668 11.6302C12.3011 11.5852 12.3531 11.5228 12.4252 11.4631C12.9382 11.038 13.6981 11.038 14.2112 11.4631C14.2832 11.5228 14.3352 11.5852 14.3696 11.6302L17.3136 15.4916C17.5105 15.7499 17.4608 16.1188 17.2026 16.3157Z" fill="#3C4242"/>
<defs>
<filter id="filter0_d_0_610" x="0.34874" y="0.409287" width="27.2154" height="27.2156" filterUnits="userSpaceOnUse" color-interpolation-filters="sRGB">
<feFlood flood-opacity="0" result="BackgroundImageFix"/>
<feColorMatrix in="SourceAlpha" type="matrix" values="0 0 0 0 0 0 0 0 0 0 0 0 0 0 0 0 0 0 127 0" result="hardAlpha"/>
<feOffset dx="0.755986" dy="0.755986"/>
<feGaussianBlur stdDeviation="1.51197"/>
<feComposite in2="hardAlpha" operator="out"/>
<feColorMatrix type="matrix" values="0 0 0 0 0 0 0 0 0 0 0 0 0 0 0 0 0 0 0.04 0"/>
<feBlend mode="normal" in2="BackgroundImageFix" result="effect1_dropShadow_0_610"/>
<feBlend mode="normal" in="SourceGraphic" in2="effect1_dropShadow_0_610" result="shape"/>
</filter>
</defs>
</svg>
